M48
;DRILL file {KiCad 4.0.1-stable} date Monday, June 13, 2016 'PMt' 11:56:37 PM
;FORMAT={-:-/ absolute / inch / decimal}
FMAT,2
INCH,TZ
T1C0.016
T2C0.030
T3C0.040
%
G90
G05
M72
T1
X5.6396Y-3.5697
X5.8245Y-3.6293
T2
X5.6756Y-3.4959
X5.6756Y-3.7959
X5.7756Y-3.4959
X5.7756Y-3.7959
X5.8756Y-3.4959
X5.8756Y-3.7959
X5.9756Y-3.4959
X5.9756Y-3.7959
T3
X5.5518Y-3.7427
X5.5518Y-3.8427
X5.5518Y-3.9427
X5.6325Y-3.3397
X5.7325Y-3.3397
X5.7984Y-3.9267
X5.8325Y-3.3397
X5.8984Y-3.9267
X6.073Y-3.3381
X6.1034Y-3.9282
X6.1068Y-3.5486
X6.1068Y-3.6486
X6.1068Y-3.7486
X6.173Y-3.3381
X6.2034Y-3.9282
X6.2068Y-3.5486
X6.2068Y-3.6486
X6.2068Y-3.7486
T0
M30
