G04 #@! TF.FileFunction,Copper,L1,Top,Signal*
%FSLAX46Y46*%
G04 Gerber Fmt 4.6, Leading zero omitted, Abs format (unit mm)*
G04 Created by KiCad (PCBNEW 4.0.1-stable) date Monday, June 13, 2016 'PMt' 11:56:34 PM*
%MOMM*%
G01*
G04 APERTURE LIST*
%ADD10C,0.100000*%
%ADD11C,1.524000*%
%ADD12R,1.397000X0.889000*%
%ADD13R,1.524000X1.524000*%
%ADD14C,0.600000*%
%ADD15C,0.254000*%
G04 APERTURE END LIST*
D10*
D11*
X155112720Y-90134440D03*
X157652720Y-90134440D03*
X155112720Y-92674440D03*
X157652720Y-92674440D03*
X155112720Y-95214440D03*
X157652720Y-95214440D03*
X144160240Y-96415860D03*
X146700240Y-96415860D03*
X149240240Y-96415860D03*
X151780240Y-96415860D03*
X151780240Y-88795860D03*
X149240240Y-88795860D03*
X146700240Y-88795860D03*
X144160240Y-88795860D03*
D12*
X141587220Y-88757760D03*
X141587220Y-90662760D03*
D13*
X143065500Y-84828380D03*
D11*
X145605500Y-84828380D03*
X148145500Y-84828380D03*
D13*
X154254200Y-84787740D03*
D11*
X156794200Y-84787740D03*
D13*
X147279360Y-99738180D03*
D11*
X149819360Y-99738180D03*
D13*
X155026360Y-99776280D03*
D11*
X157566360Y-99776280D03*
D13*
X141015720Y-95064580D03*
D11*
X141015720Y-97604580D03*
X141015720Y-100144580D03*
D14*
X147942300Y-92184220D03*
X143245840Y-90670380D03*
D15*
X154985720Y-99613720D02*
X154985720Y-98597720D01*
X155112720Y-90639900D02*
X155112720Y-90134440D01*
X154985720Y-98597720D02*
X156410660Y-97172780D01*
X156410660Y-97172780D02*
X156410660Y-91948000D01*
X156410660Y-91948000D02*
X155107640Y-90644980D01*
X155107640Y-90644980D02*
X155112720Y-90639900D01*
X149240240Y-88795860D02*
X150578820Y-90134440D01*
X150578820Y-90134440D02*
X155112720Y-90134440D01*
X149240240Y-88795860D02*
X149529800Y-88795860D01*
X155112720Y-92674440D02*
X155110180Y-92676980D01*
X155110180Y-92676980D02*
X154426920Y-92676980D01*
X154426920Y-92676980D02*
X153934160Y-92184220D01*
X153934160Y-92184220D02*
X147942300Y-92184220D01*
X146700240Y-88795860D02*
X147942300Y-90037920D01*
X147942300Y-90037920D02*
X147942300Y-91759956D01*
X147942300Y-91759956D02*
X147942300Y-92184220D01*
X151780240Y-88795860D02*
X155651200Y-88795860D01*
X155651200Y-88795860D02*
X156395420Y-89540080D01*
X156395420Y-89540080D02*
X156395420Y-90878660D01*
X157655260Y-92138500D02*
X157655260Y-92671900D01*
X157655260Y-92671900D02*
X157652720Y-92674440D01*
X156395420Y-90878660D02*
X157655260Y-92138500D01*
X145608040Y-84782660D02*
X145608040Y-84955380D01*
X145608040Y-84955380D02*
X147388580Y-86735920D01*
X147388580Y-86735920D02*
X149720300Y-86735920D01*
X149720300Y-86735920D02*
X151018241Y-88033861D01*
X151018241Y-88033861D02*
X151780240Y-88795860D01*
X144160240Y-96415860D02*
X145361660Y-95214440D01*
X145361660Y-95214440D02*
X155112720Y-95214440D01*
X141587220Y-90662760D02*
X143238220Y-90662760D01*
X143238220Y-90662760D02*
X143245840Y-90670380D01*
X146700240Y-96415860D02*
X145331180Y-97784920D01*
X145331180Y-97784920D02*
X143365220Y-97784920D01*
X143365220Y-97784920D02*
X141015720Y-95435420D01*
X141015720Y-95435420D02*
X141015720Y-95064580D01*
X149240240Y-96415860D02*
X147347940Y-98308160D01*
X147347940Y-98308160D02*
X142852140Y-98308160D01*
X142852140Y-98308160D02*
X141777719Y-99382581D01*
X141777719Y-99382581D02*
X141015720Y-100144580D01*
G36*
X158958979Y-83315478D02*
X159136145Y-83433856D01*
X159254521Y-83611019D01*
X159310000Y-83889931D01*
X159310000Y-101530069D01*
X159254521Y-101808981D01*
X159136145Y-101986144D01*
X158958979Y-102104522D01*
X158680070Y-102160000D01*
X139769931Y-102160000D01*
X139491019Y-102104521D01*
X139313856Y-101986145D01*
X139195478Y-101808979D01*
X139140000Y-101530070D01*
X139140000Y-94302580D01*
X139606280Y-94302580D01*
X139606280Y-95826580D01*
X139650558Y-96061897D01*
X139789630Y-96278021D01*
X140001830Y-96423011D01*
X140184844Y-96460072D01*
X139832091Y-96812210D01*
X139618963Y-97325480D01*
X139618478Y-97881241D01*
X139830710Y-98394883D01*
X140223350Y-98788209D01*
X140431232Y-98874529D01*
X140225417Y-98959570D01*
X139832091Y-99352210D01*
X139618963Y-99865480D01*
X139618478Y-100421241D01*
X139830710Y-100934883D01*
X140223350Y-101328209D01*
X140736620Y-101541337D01*
X141292381Y-101541822D01*
X141806023Y-101329590D01*
X142199349Y-100936950D01*
X142412477Y-100423680D01*
X142412962Y-99867919D01*
X142400404Y-99837526D01*
X143167771Y-99070160D01*
X145869920Y-99070160D01*
X145869920Y-100500180D01*
X145914198Y-100735497D01*
X146053270Y-100951621D01*
X146265470Y-101096611D01*
X146517360Y-101147620D01*
X148041360Y-101147620D01*
X148276677Y-101103342D01*
X148492801Y-100964270D01*
X148637791Y-100752070D01*
X148674852Y-100569056D01*
X149026990Y-100921809D01*
X149540260Y-101134937D01*
X150096021Y-101135422D01*
X150609663Y-100923190D01*
X151002989Y-100530550D01*
X151216117Y-100017280D01*
X151216602Y-99461519D01*
X151004370Y-98947877D01*
X150611730Y-98554551D01*
X150098460Y-98341423D01*
X149542699Y-98340938D01*
X149029057Y-98553170D01*
X148675597Y-98906013D01*
X148644522Y-98740863D01*
X148505450Y-98524739D01*
X148329329Y-98404401D01*
X148932857Y-97800873D01*
X148961140Y-97812617D01*
X149516901Y-97813102D01*
X150030543Y-97600870D01*
X150423869Y-97208230D01*
X150510189Y-97000348D01*
X150595230Y-97206163D01*
X150987870Y-97599489D01*
X151501140Y-97812617D01*
X152056901Y-97813102D01*
X152570543Y-97600870D01*
X152963869Y-97208230D01*
X153176997Y-96694960D01*
X153177482Y-96139199D01*
X153110232Y-95976440D01*
X153916015Y-95976440D01*
X153927710Y-96004743D01*
X154320350Y-96398069D01*
X154833620Y-96611197D01*
X155389381Y-96611682D01*
X155648660Y-96504550D01*
X155648660Y-96857149D01*
X154446905Y-98058905D01*
X154281724Y-98306115D01*
X154269645Y-98366840D01*
X154264360Y-98366840D01*
X154029043Y-98411118D01*
X153812919Y-98550190D01*
X153667929Y-98762390D01*
X153616920Y-99014280D01*
X153616920Y-100538280D01*
X153661198Y-100773597D01*
X153800270Y-100989721D01*
X154012470Y-101134711D01*
X154264360Y-101185720D01*
X155788360Y-101185720D01*
X156023677Y-101141442D01*
X156239801Y-101002370D01*
X156384791Y-100790170D01*
X156421852Y-100607156D01*
X156773990Y-100959909D01*
X157287260Y-101173037D01*
X157843021Y-101173522D01*
X158356663Y-100961290D01*
X158749989Y-100568650D01*
X158963117Y-100055380D01*
X158963602Y-99499619D01*
X158751370Y-98985977D01*
X158358730Y-98592651D01*
X157845460Y-98379523D01*
X157289699Y-98379038D01*
X156776057Y-98591270D01*
X156422597Y-98944113D01*
X156391522Y-98778963D01*
X156252450Y-98562839D01*
X156160832Y-98500239D01*
X156949475Y-97711596D01*
X157114656Y-97464385D01*
X157172660Y-97172780D01*
X157172660Y-96527751D01*
X157373620Y-96611197D01*
X157929381Y-96611682D01*
X158443023Y-96399450D01*
X158836349Y-96006810D01*
X159049477Y-95493540D01*
X159049962Y-94937779D01*
X158837730Y-94424137D01*
X158445090Y-94030811D01*
X158237208Y-93944491D01*
X158443023Y-93859450D01*
X158836349Y-93466810D01*
X159049477Y-92953540D01*
X159049962Y-92397779D01*
X158837730Y-91884137D01*
X158445090Y-91490811D01*
X158252993Y-91411045D01*
X158383863Y-91356837D01*
X158453328Y-91114653D01*
X157652720Y-90314045D01*
X157638578Y-90328188D01*
X157458973Y-90148583D01*
X157473115Y-90134440D01*
X157832325Y-90134440D01*
X158632933Y-90935048D01*
X158875117Y-90865583D01*
X159061864Y-90342138D01*
X159034082Y-89787072D01*
X158875117Y-89403297D01*
X158632933Y-89333832D01*
X157832325Y-90134440D01*
X157473115Y-90134440D01*
X157458973Y-90120298D01*
X157638578Y-89940693D01*
X157652720Y-89954835D01*
X158453328Y-89154227D01*
X158383863Y-88912043D01*
X157860418Y-88725296D01*
X157305352Y-88753078D01*
X156921577Y-88912043D01*
X156904511Y-88971541D01*
X156190015Y-88257045D01*
X156085112Y-88186951D01*
X155942805Y-88091864D01*
X155651200Y-88033860D01*
X152976945Y-88033860D01*
X152965250Y-88005557D01*
X152572610Y-87612231D01*
X152059340Y-87399103D01*
X151503579Y-87398618D01*
X151473187Y-87411176D01*
X150259115Y-86197105D01*
X150240972Y-86184982D01*
X150011905Y-86031924D01*
X149720300Y-85973920D01*
X148975342Y-85973920D01*
X149329129Y-85620750D01*
X149542257Y-85107480D01*
X149542286Y-85073490D01*
X152857200Y-85073490D01*
X152857200Y-85676050D01*
X152953873Y-85909439D01*
X153132502Y-86088067D01*
X153365891Y-86184740D01*
X153968450Y-86184740D01*
X154127200Y-86025990D01*
X154127200Y-84914740D01*
X153015950Y-84914740D01*
X152857200Y-85073490D01*
X149542286Y-85073490D01*
X149542742Y-84551719D01*
X149330510Y-84038077D01*
X149192105Y-83899430D01*
X152857200Y-83899430D01*
X152857200Y-84501990D01*
X153015950Y-84660740D01*
X154127200Y-84660740D01*
X154127200Y-83549490D01*
X154381200Y-83549490D01*
X154381200Y-84660740D01*
X154401200Y-84660740D01*
X154401200Y-84914740D01*
X154381200Y-84914740D01*
X154381200Y-86025990D01*
X154539950Y-86184740D01*
X155142509Y-86184740D01*
X155375898Y-86088067D01*
X155554527Y-85909439D01*
X155651200Y-85676050D01*
X155651200Y-85620126D01*
X156001830Y-85971369D01*
X156515100Y-86184497D01*
X157070861Y-86184982D01*
X157584503Y-85972750D01*
X157977829Y-85580110D01*
X158190957Y-85066840D01*
X158191442Y-84511079D01*
X157979210Y-83997437D01*
X157586570Y-83604111D01*
X157073300Y-83390983D01*
X156517539Y-83390498D01*
X156003897Y-83602730D01*
X155651200Y-83954812D01*
X155651200Y-83899430D01*
X155554527Y-83666041D01*
X155375898Y-83487413D01*
X155142509Y-83390740D01*
X154539950Y-83390740D01*
X154381200Y-83549490D01*
X154127200Y-83549490D01*
X153968450Y-83390740D01*
X153365891Y-83390740D01*
X153132502Y-83487413D01*
X152953873Y-83666041D01*
X152857200Y-83899430D01*
X149192105Y-83899430D01*
X148937870Y-83644751D01*
X148424600Y-83431623D01*
X147868839Y-83431138D01*
X147355197Y-83643370D01*
X146961871Y-84036010D01*
X146875551Y-84243892D01*
X146790510Y-84038077D01*
X146397870Y-83644751D01*
X145884600Y-83431623D01*
X145328839Y-83431138D01*
X144815197Y-83643370D01*
X144462500Y-83995452D01*
X144462500Y-83940070D01*
X144365827Y-83706681D01*
X144187198Y-83528053D01*
X143953809Y-83431380D01*
X143351250Y-83431380D01*
X143192500Y-83590130D01*
X143192500Y-84701380D01*
X143212500Y-84701380D01*
X143212500Y-84955380D01*
X143192500Y-84955380D01*
X143192500Y-86066630D01*
X143351250Y-86225380D01*
X143953809Y-86225380D01*
X144187198Y-86128707D01*
X144365827Y-85950079D01*
X144462500Y-85716690D01*
X144462500Y-85660766D01*
X144813130Y-86012009D01*
X145326400Y-86225137D01*
X145800581Y-86225551D01*
X146849765Y-87274735D01*
X147096975Y-87439916D01*
X147388580Y-87497920D01*
X148723249Y-87497920D01*
X148449937Y-87610850D01*
X148056611Y-88003490D01*
X147970291Y-88211372D01*
X147885250Y-88005557D01*
X147492610Y-87612231D01*
X146979340Y-87399103D01*
X146423579Y-87398618D01*
X145909937Y-87610850D01*
X145516611Y-88003490D01*
X145436845Y-88195587D01*
X145382637Y-88064717D01*
X145140453Y-87995252D01*
X144339845Y-88795860D01*
X145140453Y-89596468D01*
X145382637Y-89527003D01*
X145432749Y-89386542D01*
X145515230Y-89586163D01*
X145907870Y-89979489D01*
X146421140Y-90192617D01*
X146976901Y-90193102D01*
X147007294Y-90180544D01*
X147180300Y-90353550D01*
X147180300Y-91623754D01*
X147150108Y-91653893D01*
X147007462Y-91997421D01*
X147007138Y-92369387D01*
X147149183Y-92713163D01*
X147411973Y-92976412D01*
X147755501Y-93119058D01*
X148127467Y-93119382D01*
X148471243Y-92977337D01*
X148502414Y-92946220D01*
X153618530Y-92946220D01*
X153780305Y-93107995D01*
X153927710Y-93464743D01*
X154320350Y-93858069D01*
X154528232Y-93944389D01*
X154322417Y-94029430D01*
X153929091Y-94422070D01*
X153916480Y-94452440D01*
X145361660Y-94452440D01*
X145070055Y-94510444D01*
X144822844Y-94675625D01*
X144467622Y-95030847D01*
X144439340Y-95019103D01*
X143883579Y-95018618D01*
X143369937Y-95230850D01*
X142976611Y-95623490D01*
X142772639Y-96114709D01*
X142425160Y-95767230D01*
X142425160Y-94302580D01*
X142380882Y-94067263D01*
X142241810Y-93851139D01*
X142029610Y-93706149D01*
X141777720Y-93655140D01*
X140253720Y-93655140D01*
X140018403Y-93699418D01*
X139802279Y-93838490D01*
X139657289Y-94050690D01*
X139606280Y-94302580D01*
X139140000Y-94302580D01*
X139140000Y-90218260D01*
X140241280Y-90218260D01*
X140241280Y-91107260D01*
X140285558Y-91342577D01*
X140424630Y-91558701D01*
X140636830Y-91703691D01*
X140888720Y-91754700D01*
X142285720Y-91754700D01*
X142521037Y-91710422D01*
X142737161Y-91571350D01*
X142790274Y-91493616D01*
X143059041Y-91605218D01*
X143431007Y-91605542D01*
X143774783Y-91463497D01*
X144038032Y-91200707D01*
X144180678Y-90857179D01*
X144181002Y-90485213D01*
X144062939Y-90199478D01*
X144507608Y-90177222D01*
X144891383Y-90018257D01*
X144960848Y-89776073D01*
X144160240Y-88975465D01*
X144146098Y-88989608D01*
X143966493Y-88810003D01*
X143980635Y-88795860D01*
X143180027Y-87995252D01*
X142937843Y-88064717D01*
X142906490Y-88152597D01*
X142824047Y-87953562D01*
X142686133Y-87815647D01*
X143359632Y-87815647D01*
X144160240Y-88616255D01*
X144960848Y-87815647D01*
X144891383Y-87573463D01*
X144367938Y-87386716D01*
X143812872Y-87414498D01*
X143429097Y-87573463D01*
X143359632Y-87815647D01*
X142686133Y-87815647D01*
X142645419Y-87774933D01*
X142412030Y-87678260D01*
X141872970Y-87678260D01*
X141714220Y-87837010D01*
X141714220Y-88630760D01*
X141734220Y-88630760D01*
X141734220Y-88884760D01*
X141714220Y-88884760D01*
X141714220Y-88904760D01*
X141460220Y-88904760D01*
X141460220Y-88884760D01*
X140412470Y-88884760D01*
X140253720Y-89043510D01*
X140253720Y-89328569D01*
X140350393Y-89561958D01*
X140501366Y-89712931D01*
X140437279Y-89754170D01*
X140292289Y-89966370D01*
X140241280Y-90218260D01*
X139140000Y-90218260D01*
X139140000Y-88186951D01*
X140253720Y-88186951D01*
X140253720Y-88472010D01*
X140412470Y-88630760D01*
X141460220Y-88630760D01*
X141460220Y-87837010D01*
X141301470Y-87678260D01*
X140762410Y-87678260D01*
X140529021Y-87774933D01*
X140350393Y-87953562D01*
X140253720Y-88186951D01*
X139140000Y-88186951D01*
X139140000Y-85114130D01*
X141668500Y-85114130D01*
X141668500Y-85716690D01*
X141765173Y-85950079D01*
X141943802Y-86128707D01*
X142177191Y-86225380D01*
X142779750Y-86225380D01*
X142938500Y-86066630D01*
X142938500Y-84955380D01*
X141827250Y-84955380D01*
X141668500Y-85114130D01*
X139140000Y-85114130D01*
X139140000Y-83940070D01*
X141668500Y-83940070D01*
X141668500Y-84542630D01*
X141827250Y-84701380D01*
X142938500Y-84701380D01*
X142938500Y-83590130D01*
X142779750Y-83431380D01*
X142177191Y-83431380D01*
X141943802Y-83528053D01*
X141765173Y-83706681D01*
X141668500Y-83940070D01*
X139140000Y-83940070D01*
X139140000Y-83889930D01*
X139195478Y-83611021D01*
X139313856Y-83433855D01*
X139491019Y-83315479D01*
X139769931Y-83260000D01*
X158680070Y-83260000D01*
X158958979Y-83315478D01*
X158958979Y-83315478D01*
G37*
X158958979Y-83315478D02*
X159136145Y-83433856D01*
X159254521Y-83611019D01*
X159310000Y-83889931D01*
X159310000Y-101530069D01*
X159254521Y-101808981D01*
X159136145Y-101986144D01*
X158958979Y-102104522D01*
X158680070Y-102160000D01*
X139769931Y-102160000D01*
X139491019Y-102104521D01*
X139313856Y-101986145D01*
X139195478Y-101808979D01*
X139140000Y-101530070D01*
X139140000Y-94302580D01*
X139606280Y-94302580D01*
X139606280Y-95826580D01*
X139650558Y-96061897D01*
X139789630Y-96278021D01*
X140001830Y-96423011D01*
X140184844Y-96460072D01*
X139832091Y-96812210D01*
X139618963Y-97325480D01*
X139618478Y-97881241D01*
X139830710Y-98394883D01*
X140223350Y-98788209D01*
X140431232Y-98874529D01*
X140225417Y-98959570D01*
X139832091Y-99352210D01*
X139618963Y-99865480D01*
X139618478Y-100421241D01*
X139830710Y-100934883D01*
X140223350Y-101328209D01*
X140736620Y-101541337D01*
X141292381Y-101541822D01*
X141806023Y-101329590D01*
X142199349Y-100936950D01*
X142412477Y-100423680D01*
X142412962Y-99867919D01*
X142400404Y-99837526D01*
X143167771Y-99070160D01*
X145869920Y-99070160D01*
X145869920Y-100500180D01*
X145914198Y-100735497D01*
X146053270Y-100951621D01*
X146265470Y-101096611D01*
X146517360Y-101147620D01*
X148041360Y-101147620D01*
X148276677Y-101103342D01*
X148492801Y-100964270D01*
X148637791Y-100752070D01*
X148674852Y-100569056D01*
X149026990Y-100921809D01*
X149540260Y-101134937D01*
X150096021Y-101135422D01*
X150609663Y-100923190D01*
X151002989Y-100530550D01*
X151216117Y-100017280D01*
X151216602Y-99461519D01*
X151004370Y-98947877D01*
X150611730Y-98554551D01*
X150098460Y-98341423D01*
X149542699Y-98340938D01*
X149029057Y-98553170D01*
X148675597Y-98906013D01*
X148644522Y-98740863D01*
X148505450Y-98524739D01*
X148329329Y-98404401D01*
X148932857Y-97800873D01*
X148961140Y-97812617D01*
X149516901Y-97813102D01*
X150030543Y-97600870D01*
X150423869Y-97208230D01*
X150510189Y-97000348D01*
X150595230Y-97206163D01*
X150987870Y-97599489D01*
X151501140Y-97812617D01*
X152056901Y-97813102D01*
X152570543Y-97600870D01*
X152963869Y-97208230D01*
X153176997Y-96694960D01*
X153177482Y-96139199D01*
X153110232Y-95976440D01*
X153916015Y-95976440D01*
X153927710Y-96004743D01*
X154320350Y-96398069D01*
X154833620Y-96611197D01*
X155389381Y-96611682D01*
X155648660Y-96504550D01*
X155648660Y-96857149D01*
X154446905Y-98058905D01*
X154281724Y-98306115D01*
X154269645Y-98366840D01*
X154264360Y-98366840D01*
X154029043Y-98411118D01*
X153812919Y-98550190D01*
X153667929Y-98762390D01*
X153616920Y-99014280D01*
X153616920Y-100538280D01*
X153661198Y-100773597D01*
X153800270Y-100989721D01*
X154012470Y-101134711D01*
X154264360Y-101185720D01*
X155788360Y-101185720D01*
X156023677Y-101141442D01*
X156239801Y-101002370D01*
X156384791Y-100790170D01*
X156421852Y-100607156D01*
X156773990Y-100959909D01*
X157287260Y-101173037D01*
X157843021Y-101173522D01*
X158356663Y-100961290D01*
X158749989Y-100568650D01*
X158963117Y-100055380D01*
X158963602Y-99499619D01*
X158751370Y-98985977D01*
X158358730Y-98592651D01*
X157845460Y-98379523D01*
X157289699Y-98379038D01*
X156776057Y-98591270D01*
X156422597Y-98944113D01*
X156391522Y-98778963D01*
X156252450Y-98562839D01*
X156160832Y-98500239D01*
X156949475Y-97711596D01*
X157114656Y-97464385D01*
X157172660Y-97172780D01*
X157172660Y-96527751D01*
X157373620Y-96611197D01*
X157929381Y-96611682D01*
X158443023Y-96399450D01*
X158836349Y-96006810D01*
X159049477Y-95493540D01*
X159049962Y-94937779D01*
X158837730Y-94424137D01*
X158445090Y-94030811D01*
X158237208Y-93944491D01*
X158443023Y-93859450D01*
X158836349Y-93466810D01*
X159049477Y-92953540D01*
X159049962Y-92397779D01*
X158837730Y-91884137D01*
X158445090Y-91490811D01*
X158252993Y-91411045D01*
X158383863Y-91356837D01*
X158453328Y-91114653D01*
X157652720Y-90314045D01*
X157638578Y-90328188D01*
X157458973Y-90148583D01*
X157473115Y-90134440D01*
X157832325Y-90134440D01*
X158632933Y-90935048D01*
X158875117Y-90865583D01*
X159061864Y-90342138D01*
X159034082Y-89787072D01*
X158875117Y-89403297D01*
X158632933Y-89333832D01*
X157832325Y-90134440D01*
X157473115Y-90134440D01*
X157458973Y-90120298D01*
X157638578Y-89940693D01*
X157652720Y-89954835D01*
X158453328Y-89154227D01*
X158383863Y-88912043D01*
X157860418Y-88725296D01*
X157305352Y-88753078D01*
X156921577Y-88912043D01*
X156904511Y-88971541D01*
X156190015Y-88257045D01*
X156085112Y-88186951D01*
X155942805Y-88091864D01*
X155651200Y-88033860D01*
X152976945Y-88033860D01*
X152965250Y-88005557D01*
X152572610Y-87612231D01*
X152059340Y-87399103D01*
X151503579Y-87398618D01*
X151473187Y-87411176D01*
X150259115Y-86197105D01*
X150240972Y-86184982D01*
X150011905Y-86031924D01*
X149720300Y-85973920D01*
X148975342Y-85973920D01*
X149329129Y-85620750D01*
X149542257Y-85107480D01*
X149542286Y-85073490D01*
X152857200Y-85073490D01*
X152857200Y-85676050D01*
X152953873Y-85909439D01*
X153132502Y-86088067D01*
X153365891Y-86184740D01*
X153968450Y-86184740D01*
X154127200Y-86025990D01*
X154127200Y-84914740D01*
X153015950Y-84914740D01*
X152857200Y-85073490D01*
X149542286Y-85073490D01*
X149542742Y-84551719D01*
X149330510Y-84038077D01*
X149192105Y-83899430D01*
X152857200Y-83899430D01*
X152857200Y-84501990D01*
X153015950Y-84660740D01*
X154127200Y-84660740D01*
X154127200Y-83549490D01*
X154381200Y-83549490D01*
X154381200Y-84660740D01*
X154401200Y-84660740D01*
X154401200Y-84914740D01*
X154381200Y-84914740D01*
X154381200Y-86025990D01*
X154539950Y-86184740D01*
X155142509Y-86184740D01*
X155375898Y-86088067D01*
X155554527Y-85909439D01*
X155651200Y-85676050D01*
X155651200Y-85620126D01*
X156001830Y-85971369D01*
X156515100Y-86184497D01*
X157070861Y-86184982D01*
X157584503Y-85972750D01*
X157977829Y-85580110D01*
X158190957Y-85066840D01*
X158191442Y-84511079D01*
X157979210Y-83997437D01*
X157586570Y-83604111D01*
X157073300Y-83390983D01*
X156517539Y-83390498D01*
X156003897Y-83602730D01*
X155651200Y-83954812D01*
X155651200Y-83899430D01*
X155554527Y-83666041D01*
X155375898Y-83487413D01*
X155142509Y-83390740D01*
X154539950Y-83390740D01*
X154381200Y-83549490D01*
X154127200Y-83549490D01*
X153968450Y-83390740D01*
X153365891Y-83390740D01*
X153132502Y-83487413D01*
X152953873Y-83666041D01*
X152857200Y-83899430D01*
X149192105Y-83899430D01*
X148937870Y-83644751D01*
X148424600Y-83431623D01*
X147868839Y-83431138D01*
X147355197Y-83643370D01*
X146961871Y-84036010D01*
X146875551Y-84243892D01*
X146790510Y-84038077D01*
X146397870Y-83644751D01*
X145884600Y-83431623D01*
X145328839Y-83431138D01*
X144815197Y-83643370D01*
X144462500Y-83995452D01*
X144462500Y-83940070D01*
X144365827Y-83706681D01*
X144187198Y-83528053D01*
X143953809Y-83431380D01*
X143351250Y-83431380D01*
X143192500Y-83590130D01*
X143192500Y-84701380D01*
X143212500Y-84701380D01*
X143212500Y-84955380D01*
X143192500Y-84955380D01*
X143192500Y-86066630D01*
X143351250Y-86225380D01*
X143953809Y-86225380D01*
X144187198Y-86128707D01*
X144365827Y-85950079D01*
X144462500Y-85716690D01*
X144462500Y-85660766D01*
X144813130Y-86012009D01*
X145326400Y-86225137D01*
X145800581Y-86225551D01*
X146849765Y-87274735D01*
X147096975Y-87439916D01*
X147388580Y-87497920D01*
X148723249Y-87497920D01*
X148449937Y-87610850D01*
X148056611Y-88003490D01*
X147970291Y-88211372D01*
X147885250Y-88005557D01*
X147492610Y-87612231D01*
X146979340Y-87399103D01*
X146423579Y-87398618D01*
X145909937Y-87610850D01*
X145516611Y-88003490D01*
X145436845Y-88195587D01*
X145382637Y-88064717D01*
X145140453Y-87995252D01*
X144339845Y-88795860D01*
X145140453Y-89596468D01*
X145382637Y-89527003D01*
X145432749Y-89386542D01*
X145515230Y-89586163D01*
X145907870Y-89979489D01*
X146421140Y-90192617D01*
X146976901Y-90193102D01*
X147007294Y-90180544D01*
X147180300Y-90353550D01*
X147180300Y-91623754D01*
X147150108Y-91653893D01*
X147007462Y-91997421D01*
X147007138Y-92369387D01*
X147149183Y-92713163D01*
X147411973Y-92976412D01*
X147755501Y-93119058D01*
X148127467Y-93119382D01*
X148471243Y-92977337D01*
X148502414Y-92946220D01*
X153618530Y-92946220D01*
X153780305Y-93107995D01*
X153927710Y-93464743D01*
X154320350Y-93858069D01*
X154528232Y-93944389D01*
X154322417Y-94029430D01*
X153929091Y-94422070D01*
X153916480Y-94452440D01*
X145361660Y-94452440D01*
X145070055Y-94510444D01*
X144822844Y-94675625D01*
X144467622Y-95030847D01*
X144439340Y-95019103D01*
X143883579Y-95018618D01*
X143369937Y-95230850D01*
X142976611Y-95623490D01*
X142772639Y-96114709D01*
X142425160Y-95767230D01*
X142425160Y-94302580D01*
X142380882Y-94067263D01*
X142241810Y-93851139D01*
X142029610Y-93706149D01*
X141777720Y-93655140D01*
X140253720Y-93655140D01*
X140018403Y-93699418D01*
X139802279Y-93838490D01*
X139657289Y-94050690D01*
X139606280Y-94302580D01*
X139140000Y-94302580D01*
X139140000Y-90218260D01*
X140241280Y-90218260D01*
X140241280Y-91107260D01*
X140285558Y-91342577D01*
X140424630Y-91558701D01*
X140636830Y-91703691D01*
X140888720Y-91754700D01*
X142285720Y-91754700D01*
X142521037Y-91710422D01*
X142737161Y-91571350D01*
X142790274Y-91493616D01*
X143059041Y-91605218D01*
X143431007Y-91605542D01*
X143774783Y-91463497D01*
X144038032Y-91200707D01*
X144180678Y-90857179D01*
X144181002Y-90485213D01*
X144062939Y-90199478D01*
X144507608Y-90177222D01*
X144891383Y-90018257D01*
X144960848Y-89776073D01*
X144160240Y-88975465D01*
X144146098Y-88989608D01*
X143966493Y-88810003D01*
X143980635Y-88795860D01*
X143180027Y-87995252D01*
X142937843Y-88064717D01*
X142906490Y-88152597D01*
X142824047Y-87953562D01*
X142686133Y-87815647D01*
X143359632Y-87815647D01*
X144160240Y-88616255D01*
X144960848Y-87815647D01*
X144891383Y-87573463D01*
X144367938Y-87386716D01*
X143812872Y-87414498D01*
X143429097Y-87573463D01*
X143359632Y-87815647D01*
X142686133Y-87815647D01*
X142645419Y-87774933D01*
X142412030Y-87678260D01*
X141872970Y-87678260D01*
X141714220Y-87837010D01*
X141714220Y-88630760D01*
X141734220Y-88630760D01*
X141734220Y-88884760D01*
X141714220Y-88884760D01*
X141714220Y-88904760D01*
X141460220Y-88904760D01*
X141460220Y-88884760D01*
X140412470Y-88884760D01*
X140253720Y-89043510D01*
X140253720Y-89328569D01*
X140350393Y-89561958D01*
X140501366Y-89712931D01*
X140437279Y-89754170D01*
X140292289Y-89966370D01*
X140241280Y-90218260D01*
X139140000Y-90218260D01*
X139140000Y-88186951D01*
X140253720Y-88186951D01*
X140253720Y-88472010D01*
X140412470Y-88630760D01*
X141460220Y-88630760D01*
X141460220Y-87837010D01*
X141301470Y-87678260D01*
X140762410Y-87678260D01*
X140529021Y-87774933D01*
X140350393Y-87953562D01*
X140253720Y-88186951D01*
X139140000Y-88186951D01*
X139140000Y-85114130D01*
X141668500Y-85114130D01*
X141668500Y-85716690D01*
X141765173Y-85950079D01*
X141943802Y-86128707D01*
X142177191Y-86225380D01*
X142779750Y-86225380D01*
X142938500Y-86066630D01*
X142938500Y-84955380D01*
X141827250Y-84955380D01*
X141668500Y-85114130D01*
X139140000Y-85114130D01*
X139140000Y-83940070D01*
X141668500Y-83940070D01*
X141668500Y-84542630D01*
X141827250Y-84701380D01*
X142938500Y-84701380D01*
X142938500Y-83590130D01*
X142779750Y-83431380D01*
X142177191Y-83431380D01*
X141943802Y-83528053D01*
X141765173Y-83706681D01*
X141668500Y-83940070D01*
X139140000Y-83940070D01*
X139140000Y-83889930D01*
X139195478Y-83611021D01*
X139313856Y-83433855D01*
X139491019Y-83315479D01*
X139769931Y-83260000D01*
X158680070Y-83260000D01*
X158958979Y-83315478D01*
M02*
