G04 #@! TF.FileFunction,Legend,Top*
%FSLAX46Y46*%
G04 Gerber Fmt 4.6, Leading zero omitted, Abs format (unit mm)*
G04 Created by KiCad (PCBNEW 4.0.1-stable) date Monday, June 13, 2016 'PMt' 11:56:34 PM*
%MOMM*%
G01*
G04 APERTURE LIST*
%ADD10C,0.100000*%
%ADD11C,0.150000*%
%ADD12C,0.109220*%
G04 APERTURE END LIST*
D10*
D11*
X156382720Y-91404440D02*
X156382720Y-88864440D01*
X156382720Y-88864440D02*
X153842720Y-88864440D01*
X153842720Y-88864440D02*
X153842720Y-91404440D01*
X153842720Y-91404440D02*
X156382720Y-91404440D01*
X142890240Y-88795860D02*
X153050240Y-88795860D01*
X153050240Y-88795860D02*
X153050240Y-96415860D01*
X153050240Y-96415860D02*
X142890240Y-96415860D01*
X142890240Y-96415860D02*
X142890240Y-88795860D01*
X155079535Y-88289403D02*
X155031916Y-88337022D01*
X154889059Y-88384641D01*
X154793821Y-88384641D01*
X154650963Y-88337022D01*
X154555725Y-88241784D01*
X154508106Y-88146546D01*
X154460487Y-87956070D01*
X154460487Y-87813212D01*
X154508106Y-87622736D01*
X154555725Y-87527498D01*
X154650963Y-87432260D01*
X154793821Y-87384641D01*
X154889059Y-87384641D01*
X155031916Y-87432260D01*
X155079535Y-87479879D01*
X155698582Y-87384641D02*
X155889059Y-87384641D01*
X155984297Y-87432260D01*
X156079535Y-87527498D01*
X156127154Y-87717974D01*
X156127154Y-88051308D01*
X156079535Y-88241784D01*
X155984297Y-88337022D01*
X155889059Y-88384641D01*
X155698582Y-88384641D01*
X155603344Y-88337022D01*
X155508106Y-88241784D01*
X155460487Y-88051308D01*
X155460487Y-87717974D01*
X155508106Y-87527498D01*
X155603344Y-87432260D01*
X155698582Y-87384641D01*
X156555725Y-88384641D02*
X156555725Y-87384641D01*
X157127154Y-88384641D01*
X157127154Y-87384641D01*
X158127154Y-88384641D02*
X157555725Y-88384641D01*
X157841439Y-88384641D02*
X157841439Y-87384641D01*
X157746201Y-87527498D01*
X157650963Y-87622736D01*
X157555725Y-87670355D01*
X155530657Y-97439741D02*
X155530657Y-96773074D01*
X155530657Y-96439741D02*
X155483038Y-96487360D01*
X155530657Y-96534979D01*
X155578276Y-96487360D01*
X155530657Y-96439741D01*
X155530657Y-96534979D01*
X155959228Y-97392122D02*
X156054466Y-97439741D01*
X156244942Y-97439741D01*
X156340181Y-97392122D01*
X156387800Y-97296884D01*
X156387800Y-97249265D01*
X156340181Y-97154027D01*
X156244942Y-97106408D01*
X156102085Y-97106408D01*
X156006847Y-97058789D01*
X155959228Y-96963550D01*
X155959228Y-96915931D01*
X156006847Y-96820693D01*
X156102085Y-96773074D01*
X156244942Y-96773074D01*
X156340181Y-96820693D01*
X156816371Y-96773074D02*
X156816371Y-97773074D01*
X156816371Y-96820693D02*
X156911609Y-96773074D01*
X157102086Y-96773074D01*
X157197324Y-96820693D01*
X157244943Y-96868312D01*
X157292562Y-96963550D01*
X157292562Y-97249265D01*
X157244943Y-97344503D01*
X157197324Y-97392122D01*
X157102086Y-97439741D01*
X156911609Y-97439741D01*
X156816371Y-97392122D01*
X146991510Y-91541861D02*
X146991510Y-90541861D01*
X148039129Y-91446623D02*
X147991510Y-91494242D01*
X147848653Y-91541861D01*
X147753415Y-91541861D01*
X147610557Y-91494242D01*
X147515319Y-91399004D01*
X147467700Y-91303766D01*
X147420081Y-91113290D01*
X147420081Y-90970432D01*
X147467700Y-90779956D01*
X147515319Y-90684718D01*
X147610557Y-90589480D01*
X147753415Y-90541861D01*
X147848653Y-90541861D01*
X147991510Y-90589480D01*
X148039129Y-90637099D01*
X148991510Y-91541861D02*
X148420081Y-91541861D01*
X148705795Y-91541861D02*
X148705795Y-90541861D01*
X148610557Y-90684718D01*
X148515319Y-90779956D01*
X148420081Y-90827575D01*
X143774375Y-93366887D02*
X144250566Y-93366887D01*
X143679137Y-93652601D02*
X144012470Y-92652601D01*
X144345804Y-93652601D01*
X144536280Y-92652601D02*
X145107709Y-92652601D01*
X144821994Y-93652601D02*
X144821994Y-92652601D01*
X145298185Y-92652601D02*
X145869614Y-92652601D01*
X145583899Y-93652601D02*
X145583899Y-92652601D01*
X146202947Y-93652601D02*
X146202947Y-92652601D01*
X146679137Y-93652601D02*
X146679137Y-92652601D01*
X147250566Y-93652601D01*
X147250566Y-92652601D01*
X147917232Y-93176410D02*
X147917232Y-93652601D01*
X147583899Y-92652601D02*
X147917232Y-93176410D01*
X148250566Y-92652601D01*
X148726756Y-93081172D02*
X148631518Y-93033553D01*
X148583899Y-92985934D01*
X148536280Y-92890696D01*
X148536280Y-92843077D01*
X148583899Y-92747839D01*
X148631518Y-92700220D01*
X148726756Y-92652601D01*
X148917233Y-92652601D01*
X149012471Y-92700220D01*
X149060090Y-92747839D01*
X149107709Y-92843077D01*
X149107709Y-92890696D01*
X149060090Y-92985934D01*
X149012471Y-93033553D01*
X148917233Y-93081172D01*
X148726756Y-93081172D01*
X148631518Y-93128791D01*
X148583899Y-93176410D01*
X148536280Y-93271649D01*
X148536280Y-93462125D01*
X148583899Y-93557363D01*
X148631518Y-93604982D01*
X148726756Y-93652601D01*
X148917233Y-93652601D01*
X149012471Y-93604982D01*
X149060090Y-93557363D01*
X149107709Y-93462125D01*
X149107709Y-93271649D01*
X149060090Y-93176410D01*
X149012471Y-93128791D01*
X148917233Y-93081172D01*
X150012471Y-92652601D02*
X149536280Y-92652601D01*
X149488661Y-93128791D01*
X149536280Y-93081172D01*
X149631518Y-93033553D01*
X149869614Y-93033553D01*
X149964852Y-93081172D01*
X150012471Y-93128791D01*
X150060090Y-93224030D01*
X150060090Y-93462125D01*
X150012471Y-93557363D01*
X149964852Y-93604982D01*
X149869614Y-93652601D01*
X149631518Y-93652601D01*
X149536280Y-93604982D01*
X149488661Y-93557363D01*
X150488661Y-93271649D02*
X151250566Y-93271649D01*
X151726756Y-93652601D02*
X151726756Y-92652601D01*
X152107709Y-92652601D01*
X152202947Y-92700220D01*
X152250566Y-92747839D01*
X152298185Y-92843077D01*
X152298185Y-92985934D01*
X152250566Y-93081172D01*
X152202947Y-93128791D01*
X152107709Y-93176410D01*
X151726756Y-93176410D01*
X144612621Y-94225145D02*
X144612621Y-94796574D01*
X144612621Y-94510860D02*
X143612621Y-94510860D01*
X143755478Y-94606098D01*
X143850716Y-94701336D01*
X143898335Y-94796574D01*
D12*
X141027272Y-89936622D02*
X140741340Y-89936622D01*
X140884306Y-89936622D02*
X140884306Y-89436242D01*
X140836651Y-89507725D01*
X140788996Y-89555380D01*
X140741340Y-89579208D01*
X141337031Y-89436242D02*
X141384686Y-89436242D01*
X141432341Y-89460070D01*
X141456169Y-89483898D01*
X141479996Y-89531553D01*
X141503824Y-89626863D01*
X141503824Y-89746001D01*
X141479996Y-89841312D01*
X141456169Y-89888967D01*
X141432341Y-89912795D01*
X141384686Y-89936622D01*
X141337031Y-89936622D01*
X141289375Y-89912795D01*
X141265548Y-89888967D01*
X141241720Y-89841312D01*
X141217892Y-89746001D01*
X141217892Y-89626863D01*
X141241720Y-89531553D01*
X141265548Y-89483898D01*
X141289375Y-89460070D01*
X141337031Y-89436242D01*
X141813583Y-89436242D02*
X141861238Y-89436242D01*
X141908893Y-89460070D01*
X141932721Y-89483898D01*
X141956548Y-89531553D01*
X141980376Y-89626863D01*
X141980376Y-89746001D01*
X141956548Y-89841312D01*
X141932721Y-89888967D01*
X141908893Y-89912795D01*
X141861238Y-89936622D01*
X141813583Y-89936622D01*
X141765927Y-89912795D01*
X141742100Y-89888967D01*
X141718272Y-89841312D01*
X141694444Y-89746001D01*
X141694444Y-89626863D01*
X141718272Y-89531553D01*
X141742100Y-89483898D01*
X141765927Y-89460070D01*
X141813583Y-89436242D01*
X142194824Y-89603036D02*
X142194824Y-89936622D01*
X142194824Y-89650691D02*
X142218652Y-89626863D01*
X142266307Y-89603036D01*
X142337790Y-89603036D01*
X142385445Y-89626863D01*
X142409273Y-89674519D01*
X142409273Y-89936622D01*
D11*
X141755121Y-85462335D02*
X140755121Y-85462335D01*
X140755121Y-85081382D01*
X140802740Y-84986144D01*
X140850359Y-84938525D01*
X140945597Y-84890906D01*
X141088454Y-84890906D01*
X141183692Y-84938525D01*
X141231311Y-84986144D01*
X141278930Y-85081382D01*
X141278930Y-85462335D01*
X141755121Y-83938525D02*
X141755121Y-84509954D01*
X141755121Y-84224240D02*
X140755121Y-84224240D01*
X140897978Y-84319478D01*
X140993216Y-84414716D01*
X141040835Y-84509954D01*
X141301696Y-86359074D02*
X141539791Y-87025741D01*
X141777887Y-86359074D01*
X142587411Y-86978122D02*
X142492173Y-87025741D01*
X142301696Y-87025741D01*
X142206458Y-86978122D01*
X142158839Y-86930503D01*
X142111220Y-86835265D01*
X142111220Y-86549550D01*
X142158839Y-86454312D01*
X142206458Y-86406693D01*
X142301696Y-86359074D01*
X142492173Y-86359074D01*
X142587411Y-86406693D01*
X143444554Y-86978122D02*
X143349316Y-87025741D01*
X143158839Y-87025741D01*
X143063601Y-86978122D01*
X143015982Y-86930503D01*
X142968363Y-86835265D01*
X142968363Y-86549550D01*
X143015982Y-86454312D01*
X143063601Y-86406693D01*
X143158839Y-86359074D01*
X143349316Y-86359074D01*
X143444554Y-86406693D01*
X144777887Y-87025741D02*
X144682649Y-86978122D01*
X144635030Y-86882884D01*
X144635030Y-86025741D01*
X145539793Y-86978122D02*
X145444555Y-87025741D01*
X145254078Y-87025741D01*
X145158840Y-86978122D01*
X145111221Y-86882884D01*
X145111221Y-86501931D01*
X145158840Y-86406693D01*
X145254078Y-86359074D01*
X145444555Y-86359074D01*
X145539793Y-86406693D01*
X145587412Y-86501931D01*
X145587412Y-86597170D01*
X145111221Y-86692408D01*
X146444555Y-87025741D02*
X146444555Y-86025741D01*
X146444555Y-86978122D02*
X146349317Y-87025741D01*
X146158840Y-87025741D01*
X146063602Y-86978122D01*
X146015983Y-86930503D01*
X145968364Y-86835265D01*
X145968364Y-86549550D01*
X146015983Y-86454312D01*
X146063602Y-86406693D01*
X146158840Y-86359074D01*
X146349317Y-86359074D01*
X146444555Y-86406693D01*
X148111222Y-86359074D02*
X148111222Y-87168598D01*
X148063603Y-87263836D01*
X148015984Y-87311455D01*
X147920745Y-87359074D01*
X147777888Y-87359074D01*
X147682650Y-87311455D01*
X148111222Y-86978122D02*
X148015984Y-87025741D01*
X147825507Y-87025741D01*
X147730269Y-86978122D01*
X147682650Y-86930503D01*
X147635031Y-86835265D01*
X147635031Y-86549550D01*
X147682650Y-86454312D01*
X147730269Y-86406693D01*
X147825507Y-86359074D01*
X148015984Y-86359074D01*
X148111222Y-86406693D01*
X148587412Y-86359074D02*
X148587412Y-87025741D01*
X148587412Y-86454312D02*
X148635031Y-86406693D01*
X148730269Y-86359074D01*
X148873127Y-86359074D01*
X148968365Y-86406693D01*
X149015984Y-86501931D01*
X149015984Y-87025741D01*
X149920746Y-87025741D02*
X149920746Y-86025741D01*
X149920746Y-86978122D02*
X149825508Y-87025741D01*
X149635031Y-87025741D01*
X149539793Y-86978122D01*
X149492174Y-86930503D01*
X149444555Y-86835265D01*
X149444555Y-86549550D01*
X149492174Y-86454312D01*
X149539793Y-86406693D01*
X149635031Y-86359074D01*
X149825508Y-86359074D01*
X149920746Y-86406693D01*
X152943821Y-85546155D02*
X151943821Y-85546155D01*
X151943821Y-85165202D01*
X151991440Y-85069964D01*
X152039059Y-85022345D01*
X152134297Y-84974726D01*
X152277154Y-84974726D01*
X152372392Y-85022345D01*
X152420011Y-85069964D01*
X152467630Y-85165202D01*
X152467630Y-85546155D01*
X152039059Y-84593774D02*
X151991440Y-84546155D01*
X151943821Y-84450917D01*
X151943821Y-84212821D01*
X151991440Y-84117583D01*
X152039059Y-84069964D01*
X152134297Y-84022345D01*
X152229535Y-84022345D01*
X152372392Y-84069964D01*
X152943821Y-84641393D01*
X152943821Y-84022345D01*
X152698486Y-86196514D02*
X152936581Y-86863181D01*
X153174677Y-86196514D01*
X153984201Y-86815562D02*
X153888963Y-86863181D01*
X153698486Y-86863181D01*
X153603248Y-86815562D01*
X153555629Y-86767943D01*
X153508010Y-86672705D01*
X153508010Y-86386990D01*
X153555629Y-86291752D01*
X153603248Y-86244133D01*
X153698486Y-86196514D01*
X153888963Y-86196514D01*
X153984201Y-86244133D01*
X154841344Y-86815562D02*
X154746106Y-86863181D01*
X154555629Y-86863181D01*
X154460391Y-86815562D01*
X154412772Y-86767943D01*
X154365153Y-86672705D01*
X154365153Y-86386990D01*
X154412772Y-86291752D01*
X154460391Y-86244133D01*
X154555629Y-86196514D01*
X154746106Y-86196514D01*
X154841344Y-86244133D01*
X156460392Y-86196514D02*
X156460392Y-87006038D01*
X156412773Y-87101276D01*
X156365154Y-87148895D01*
X156269915Y-87196514D01*
X156127058Y-87196514D01*
X156031820Y-87148895D01*
X156460392Y-86815562D02*
X156365154Y-86863181D01*
X156174677Y-86863181D01*
X156079439Y-86815562D01*
X156031820Y-86767943D01*
X155984201Y-86672705D01*
X155984201Y-86386990D01*
X156031820Y-86291752D01*
X156079439Y-86244133D01*
X156174677Y-86196514D01*
X156365154Y-86196514D01*
X156460392Y-86244133D01*
X156936582Y-86196514D02*
X156936582Y-86863181D01*
X156936582Y-86291752D02*
X156984201Y-86244133D01*
X157079439Y-86196514D01*
X157222297Y-86196514D01*
X157317535Y-86244133D01*
X157365154Y-86339371D01*
X157365154Y-86863181D01*
X158269916Y-86863181D02*
X158269916Y-85863181D01*
X158269916Y-86815562D02*
X158174678Y-86863181D01*
X157984201Y-86863181D01*
X157888963Y-86815562D01*
X157841344Y-86767943D01*
X157793725Y-86672705D01*
X157793725Y-86386990D01*
X157841344Y-86291752D01*
X157888963Y-86244133D01*
X157984201Y-86196514D01*
X158174678Y-86196514D01*
X158269916Y-86244133D01*
X145709901Y-100435635D02*
X144709901Y-100435635D01*
X144709901Y-100054682D01*
X144757520Y-99959444D01*
X144805139Y-99911825D01*
X144900377Y-99864206D01*
X145043234Y-99864206D01*
X145138472Y-99911825D01*
X145186091Y-99959444D01*
X145233710Y-100054682D01*
X145233710Y-100435635D01*
X144709901Y-99530873D02*
X144709901Y-98911825D01*
X145090853Y-99245159D01*
X145090853Y-99102301D01*
X145138472Y-99007063D01*
X145186091Y-98959444D01*
X145281330Y-98911825D01*
X145519425Y-98911825D01*
X145614663Y-98959444D01*
X145662282Y-99007063D01*
X145709901Y-99102301D01*
X145709901Y-99388016D01*
X145662282Y-99483254D01*
X145614663Y-99530873D01*
X146518904Y-101966021D02*
X146518904Y-101299354D01*
X146518904Y-100966021D02*
X146471285Y-101013640D01*
X146518904Y-101061259D01*
X146566523Y-101013640D01*
X146518904Y-100966021D01*
X146518904Y-101061259D01*
X146995094Y-101299354D02*
X146995094Y-101966021D01*
X146995094Y-101394592D02*
X147042713Y-101346973D01*
X147137951Y-101299354D01*
X147280809Y-101299354D01*
X147376047Y-101346973D01*
X147423666Y-101442211D01*
X147423666Y-101966021D01*
X149090333Y-101299354D02*
X149090333Y-102108878D01*
X149042714Y-102204116D01*
X148995095Y-102251735D01*
X148899856Y-102299354D01*
X148756999Y-102299354D01*
X148661761Y-102251735D01*
X149090333Y-101918402D02*
X148995095Y-101966021D01*
X148804618Y-101966021D01*
X148709380Y-101918402D01*
X148661761Y-101870783D01*
X148614142Y-101775545D01*
X148614142Y-101489830D01*
X148661761Y-101394592D01*
X148709380Y-101346973D01*
X148804618Y-101299354D01*
X148995095Y-101299354D01*
X149090333Y-101346973D01*
X149566523Y-101299354D02*
X149566523Y-101966021D01*
X149566523Y-101394592D02*
X149614142Y-101346973D01*
X149709380Y-101299354D01*
X149852238Y-101299354D01*
X149947476Y-101346973D01*
X149995095Y-101442211D01*
X149995095Y-101966021D01*
X150899857Y-101966021D02*
X150899857Y-100966021D01*
X150899857Y-101918402D02*
X150804619Y-101966021D01*
X150614142Y-101966021D01*
X150518904Y-101918402D01*
X150471285Y-101870783D01*
X150423666Y-101775545D01*
X150423666Y-101489830D01*
X150471285Y-101394592D01*
X150518904Y-101346973D01*
X150614142Y-101299354D01*
X150804619Y-101299354D01*
X150899857Y-101346973D01*
X153863301Y-100407695D02*
X152863301Y-100407695D01*
X152863301Y-100026742D01*
X152910920Y-99931504D01*
X152958539Y-99883885D01*
X153053777Y-99836266D01*
X153196634Y-99836266D01*
X153291872Y-99883885D01*
X153339491Y-99931504D01*
X153387110Y-100026742D01*
X153387110Y-100407695D01*
X153196634Y-98979123D02*
X153863301Y-98979123D01*
X152815682Y-99217219D02*
X153529968Y-99455314D01*
X153529968Y-98836266D01*
X153863040Y-101948241D02*
X153767802Y-101900622D01*
X153720183Y-101853003D01*
X153672564Y-101757765D01*
X153672564Y-101472050D01*
X153720183Y-101376812D01*
X153767802Y-101329193D01*
X153863040Y-101281574D01*
X154005898Y-101281574D01*
X154101136Y-101329193D01*
X154148755Y-101376812D01*
X154196374Y-101472050D01*
X154196374Y-101757765D01*
X154148755Y-101853003D01*
X154101136Y-101900622D01*
X154005898Y-101948241D01*
X153863040Y-101948241D01*
X155053517Y-101281574D02*
X155053517Y-101948241D01*
X154624945Y-101281574D02*
X154624945Y-101805384D01*
X154672564Y-101900622D01*
X154767802Y-101948241D01*
X154910660Y-101948241D01*
X155005898Y-101900622D01*
X155053517Y-101853003D01*
X155386850Y-101281574D02*
X155767802Y-101281574D01*
X155529707Y-100948241D02*
X155529707Y-101805384D01*
X155577326Y-101900622D01*
X155672564Y-101948241D01*
X155767802Y-101948241D01*
X157291613Y-101281574D02*
X157291613Y-102091098D01*
X157243994Y-102186336D01*
X157196375Y-102233955D01*
X157101136Y-102281574D01*
X156958279Y-102281574D01*
X156863041Y-102233955D01*
X157291613Y-101900622D02*
X157196375Y-101948241D01*
X157005898Y-101948241D01*
X156910660Y-101900622D01*
X156863041Y-101853003D01*
X156815422Y-101757765D01*
X156815422Y-101472050D01*
X156863041Y-101376812D01*
X156910660Y-101329193D01*
X157005898Y-101281574D01*
X157196375Y-101281574D01*
X157291613Y-101329193D01*
X157767803Y-101281574D02*
X157767803Y-101948241D01*
X157767803Y-101376812D02*
X157815422Y-101329193D01*
X157910660Y-101281574D01*
X158053518Y-101281574D01*
X158148756Y-101329193D01*
X158196375Y-101424431D01*
X158196375Y-101948241D01*
X159101137Y-101948241D02*
X159101137Y-100948241D01*
X159101137Y-101900622D02*
X159005899Y-101948241D01*
X158815422Y-101948241D01*
X158720184Y-101900622D01*
X158672565Y-101853003D01*
X158624946Y-101757765D01*
X158624946Y-101472050D01*
X158672565Y-101376812D01*
X158720184Y-101329193D01*
X158815422Y-101281574D01*
X159005899Y-101281574D01*
X159101137Y-101329193D01*
X140308105Y-93843101D02*
X140308105Y-92843101D01*
X140689058Y-92843101D01*
X140784296Y-92890720D01*
X140831915Y-92938339D01*
X140879534Y-93033577D01*
X140879534Y-93176434D01*
X140831915Y-93271672D01*
X140784296Y-93319291D01*
X140689058Y-93366910D01*
X140308105Y-93366910D01*
X141784296Y-92843101D02*
X141308105Y-92843101D01*
X141260486Y-93319291D01*
X141308105Y-93271672D01*
X141403343Y-93224053D01*
X141641439Y-93224053D01*
X141736677Y-93271672D01*
X141784296Y-93319291D01*
X141831915Y-93414530D01*
X141831915Y-93652625D01*
X141784296Y-93747863D01*
X141736677Y-93795482D01*
X141641439Y-93843101D01*
X141403343Y-93843101D01*
X141308105Y-93795482D01*
X141260486Y-93747863D01*
X139794882Y-99915053D02*
X139842501Y-100010291D01*
X139842501Y-100200768D01*
X139794882Y-100296006D01*
X139699644Y-100343625D01*
X139318691Y-100343625D01*
X139223453Y-100296006D01*
X139175834Y-100200768D01*
X139175834Y-100010291D01*
X139223453Y-99915053D01*
X139318691Y-99867434D01*
X139413930Y-99867434D01*
X139509168Y-100343625D01*
X139175834Y-99438863D02*
X139842501Y-99438863D01*
X139271072Y-99438863D02*
X139223453Y-99391244D01*
X139175834Y-99296006D01*
X139175834Y-99153148D01*
X139223453Y-99057910D01*
X139318691Y-99010291D01*
X139842501Y-99010291D01*
X139794882Y-98105529D02*
X139842501Y-98200767D01*
X139842501Y-98391244D01*
X139794882Y-98486482D01*
X139747263Y-98534101D01*
X139652025Y-98581720D01*
X139366310Y-98581720D01*
X139271072Y-98534101D01*
X139223453Y-98486482D01*
X139175834Y-98391244D01*
X139175834Y-98200767D01*
X139223453Y-98105529D01*
X139842501Y-97534101D02*
X139794882Y-97629339D01*
X139747263Y-97676958D01*
X139652025Y-97724577D01*
X139366310Y-97724577D01*
X139271072Y-97676958D01*
X139223453Y-97629339D01*
X139175834Y-97534101D01*
X139175834Y-97391243D01*
X139223453Y-97296005D01*
X139271072Y-97248386D01*
X139366310Y-97200767D01*
X139652025Y-97200767D01*
X139747263Y-97248386D01*
X139794882Y-97296005D01*
X139842501Y-97391243D01*
X139842501Y-97534101D01*
X139842501Y-96343624D02*
X138842501Y-96343624D01*
X139794882Y-96343624D02*
X139842501Y-96438862D01*
X139842501Y-96629339D01*
X139794882Y-96724577D01*
X139747263Y-96772196D01*
X139652025Y-96819815D01*
X139366310Y-96819815D01*
X139271072Y-96772196D01*
X139223453Y-96724577D01*
X139175834Y-96629339D01*
X139175834Y-96438862D01*
X139223453Y-96343624D01*
X139794882Y-95486481D02*
X139842501Y-95581719D01*
X139842501Y-95772196D01*
X139794882Y-95867434D01*
X139699644Y-95915053D01*
X139318691Y-95915053D01*
X139223453Y-95867434D01*
X139175834Y-95772196D01*
X139175834Y-95581719D01*
X139223453Y-95486481D01*
X139318691Y-95438862D01*
X139413930Y-95438862D01*
X139509168Y-95915053D01*
X139842501Y-95010291D02*
X139175834Y-95010291D01*
X139366310Y-95010291D02*
X139271072Y-94962672D01*
X139223453Y-94915053D01*
X139175834Y-94819815D01*
X139175834Y-94724576D01*
M02*
