G04 #@! TF.FileFunction,Legend,Bot*
%FSLAX46Y46*%
G04 Gerber Fmt 4.6, Leading zero omitted, Abs format (unit mm)*
G04 Created by KiCad (PCBNEW 4.0.1-stable) date Monday, June 13, 2016 'PMt' 11:56:34 PM*
%MOMM*%
G01*
G04 APERTURE LIST*
%ADD10C,0.100000*%
%ADD11C,0.127000*%
G04 APERTURE END LIST*
D10*
D11*
X153359273Y-91114517D02*
X153359273Y-92384517D01*
X153359273Y-91174993D02*
X153238321Y-91114517D01*
X152996416Y-91114517D01*
X152875464Y-91174993D01*
X152814987Y-91235470D01*
X152754511Y-91356422D01*
X152754511Y-91719279D01*
X152814987Y-91840231D01*
X152875464Y-91900708D01*
X152996416Y-91961184D01*
X153238321Y-91961184D01*
X153359273Y-91900708D01*
X152210225Y-91114517D02*
X152210225Y-92384517D01*
X152210225Y-91174993D02*
X152089273Y-91114517D01*
X151847368Y-91114517D01*
X151726416Y-91174993D01*
X151665939Y-91235470D01*
X151605463Y-91356422D01*
X151605463Y-91719279D01*
X151665939Y-91840231D01*
X151726416Y-91900708D01*
X151847368Y-91961184D01*
X152089273Y-91961184D01*
X152210225Y-91900708D01*
X150274987Y-91356422D02*
X150335463Y-91295946D01*
X150456415Y-91235470D01*
X150577368Y-91235470D01*
X150698320Y-91295946D01*
X150758796Y-91356422D01*
X150819272Y-91477374D01*
X150819272Y-91598327D01*
X150758796Y-91719279D01*
X150698320Y-91779755D01*
X150577368Y-91840231D01*
X150456415Y-91840231D01*
X150335463Y-91779755D01*
X150274987Y-91719279D01*
X150274987Y-91235470D02*
X150274987Y-91719279D01*
X150214510Y-91779755D01*
X150154034Y-91779755D01*
X150033082Y-91719279D01*
X149972606Y-91598327D01*
X149972606Y-91295946D01*
X150093558Y-91114517D01*
X150274987Y-90993565D01*
X150516891Y-90933089D01*
X150758796Y-90993565D01*
X150940225Y-91114517D01*
X151061177Y-91295946D01*
X151121653Y-91537850D01*
X151061177Y-91779755D01*
X150940225Y-91961184D01*
X150758796Y-92082136D01*
X150516891Y-92142612D01*
X150274987Y-92082136D01*
X150093558Y-91961184D01*
X149428320Y-91961184D02*
X149428320Y-91114517D01*
X149428320Y-91235470D02*
X149367844Y-91174993D01*
X149246891Y-91114517D01*
X149065463Y-91114517D01*
X148944511Y-91174993D01*
X148884034Y-91295946D01*
X148884034Y-91961184D01*
X148884034Y-91295946D02*
X148823558Y-91174993D01*
X148702606Y-91114517D01*
X148521177Y-91114517D01*
X148400225Y-91174993D01*
X148339749Y-91295946D01*
X148339749Y-91961184D01*
X147855939Y-91114517D02*
X147553558Y-91961184D01*
X147251178Y-91114517D02*
X147553558Y-91961184D01*
X147674511Y-92263565D01*
X147734987Y-92324041D01*
X147855939Y-92384517D01*
X146283559Y-91900708D02*
X146404511Y-91961184D01*
X146646416Y-91961184D01*
X146767368Y-91900708D01*
X146827844Y-91779755D01*
X146827844Y-91295946D01*
X146767368Y-91174993D01*
X146646416Y-91114517D01*
X146404511Y-91114517D01*
X146283559Y-91174993D01*
X146223082Y-91295946D01*
X146223082Y-91416898D01*
X146827844Y-91537850D01*
X145497368Y-91961184D02*
X145618321Y-91900708D01*
X145678797Y-91779755D01*
X145678797Y-90691184D01*
X145013559Y-91961184D02*
X145013559Y-91114517D01*
X145013559Y-90691184D02*
X145074035Y-90751660D01*
X145013559Y-90812136D01*
X144953083Y-90751660D01*
X145013559Y-90691184D01*
X145013559Y-90812136D01*
X144408797Y-91114517D02*
X144408797Y-91961184D01*
X144408797Y-91235470D02*
X144348321Y-91174993D01*
X144227368Y-91114517D01*
X144045940Y-91114517D01*
X143924988Y-91174993D01*
X143864511Y-91295946D01*
X143864511Y-91961184D01*
X143259749Y-91840231D02*
X143199273Y-91900708D01*
X143259749Y-91961184D01*
X143320225Y-91900708D01*
X143259749Y-91840231D01*
X143259749Y-91961184D01*
X142654987Y-91114517D02*
X142654987Y-91961184D01*
X142654987Y-91235470D02*
X142594511Y-91174993D01*
X142473558Y-91114517D01*
X142292130Y-91114517D01*
X142171178Y-91174993D01*
X142110701Y-91295946D01*
X142110701Y-91961184D01*
X141626891Y-91114517D02*
X140961653Y-91114517D01*
X141626891Y-91961184D01*
X140961653Y-91961184D01*
X150849512Y-94349993D02*
X150909988Y-94289517D01*
X151030940Y-94108089D01*
X151091417Y-93987136D01*
X151151893Y-93805708D01*
X151212369Y-93503327D01*
X151212369Y-93261422D01*
X151151893Y-92959041D01*
X151091417Y-92777612D01*
X151030940Y-92656660D01*
X150909988Y-92475231D01*
X150849512Y-92414755D01*
X149821416Y-93805708D02*
X149942369Y-93866184D01*
X150184273Y-93866184D01*
X150305226Y-93805708D01*
X150365702Y-93745231D01*
X150426178Y-93624279D01*
X150426178Y-93261422D01*
X150365702Y-93140470D01*
X150305226Y-93079993D01*
X150184273Y-93019517D01*
X149942369Y-93019517D01*
X149821416Y-93079993D01*
X149398083Y-94349993D02*
X149337607Y-94289517D01*
X149216655Y-94108089D01*
X149156179Y-93987136D01*
X149095702Y-93805708D01*
X149035226Y-93503327D01*
X149035226Y-93261422D01*
X149095702Y-92959041D01*
X149156179Y-92777612D01*
X149216655Y-92656660D01*
X149337607Y-92475231D01*
X149398083Y-92414755D01*
X147523321Y-92717136D02*
X147462845Y-92656660D01*
X147341893Y-92596184D01*
X147039512Y-92596184D01*
X146918559Y-92656660D01*
X146858083Y-92717136D01*
X146797607Y-92838089D01*
X146797607Y-92959041D01*
X146858083Y-93140470D01*
X147583797Y-93866184D01*
X146797607Y-93866184D01*
X146011416Y-92596184D02*
X145890464Y-92596184D01*
X145769512Y-92656660D01*
X145709035Y-92717136D01*
X145648559Y-92838089D01*
X145588083Y-93079993D01*
X145588083Y-93382374D01*
X145648559Y-93624279D01*
X145709035Y-93745231D01*
X145769512Y-93805708D01*
X145890464Y-93866184D01*
X146011416Y-93866184D01*
X146132369Y-93805708D01*
X146192845Y-93745231D01*
X146253321Y-93624279D01*
X146313797Y-93382374D01*
X146313797Y-93079993D01*
X146253321Y-92838089D01*
X146192845Y-92717136D01*
X146132369Y-92656660D01*
X146011416Y-92596184D01*
X144378559Y-93866184D02*
X145104273Y-93866184D01*
X144741416Y-93866184D02*
X144741416Y-92596184D01*
X144862368Y-92777612D01*
X144983321Y-92898565D01*
X145104273Y-92959041D01*
X143289987Y-92596184D02*
X143531892Y-92596184D01*
X143652844Y-92656660D01*
X143713321Y-92717136D01*
X143834273Y-92898565D01*
X143894749Y-93140470D01*
X143894749Y-93624279D01*
X143834273Y-93745231D01*
X143773797Y-93805708D01*
X143652844Y-93866184D01*
X143410940Y-93866184D01*
X143289987Y-93805708D01*
X143229511Y-93745231D01*
X143169035Y-93624279D01*
X143169035Y-93321898D01*
X143229511Y-93200946D01*
X143289987Y-93140470D01*
X143410940Y-93079993D01*
X143652844Y-93079993D01*
X143773797Y-93140470D01*
X143834273Y-93200946D01*
X143894749Y-93321898D01*
M02*
